<svg version="1.1" id="svg1" xml:space="preserve" xmlns="http://www.w3.org/2000/svg" viewBox="-0.02 2.28 23.67 8.28"><defs id="defs1"/>
    <g id="layer1" transform="translate(-8.7732392,-44.379504)"><g id="g1" transform="matrix(0.0827413,0,0,0.0827413,8.7732385,46.664123)"><g id="layer1-3" transform="translate(-9.0459146,-9.0925027)"><path d="m 140.55482,9.0925127 c -4.12501,0 -7.81563,1.4642203 -10.625,4.2718503 -2.82344,2.80637 -4.33594,6.46306 -4.33594,10.56311 0,3.33203 1.10468,6.46726 3.125,9.0097 -1.10156,0.98004 -2.13906,2.06369 -3.08594,3.26214 -3.89219,4.88156 -5.85937,10.59169 -5.85937,17.0097 v 29.32039 c 0,6.25726 2.00468,11.98546 5.9375,16.970866 4.90781,6.268211 12.07343,9.592231 20.74218,9.592231 8.65313,0 15.88282,-3.36466 20.82032,-9.631071 0.0984,-0.11645 0.17968,-0.233 0.27343,-0.34952 0.0984,0.13781 0.21094,0.26098 0.3125,0.38836 4.90938,6.257891 12.125,9.592231 20.78125,9.592231 8.65,0 15.825,-3.35556 20.78125,-9.631071 0.0937,-0.11645 0.18594,-0.233 0.27344,-0.34952 0.10462,0.13298 0.20469,0.26209 0.3125,0.38836 4.91563,6.268211 12.10625,9.592231 20.78125,9.592231 7.12969,0 13.2625,-2.2706 17.96875,-6.5631 0.53281,0.77368 1.14219,1.48908 1.83594,2.17475 2.84062,2.8562 6.49219,4.38835 10.54687,4.38835 3.48594,0 6.67344,-1.14802 9.29688,-3.26213 2.63906,2.11411 5.84843,3.26213 9.33593,3.26213 4.04063,0 7.68594,-1.50972 10.54688,-4.34951 2.86406,-2.84465 4.375,-6.455101 4.375,-10.485447 v -52.85435 c 0,-3.24629 -1.00469,-6.20316 -2.89063,-8.69903 1.88907,-2.50732 2.89063,-5.50835 2.89063,-8.77669 0,-4.00605 -1.53125,-7.65111 -4.41406,-10.52428 -2.85938,-2.8387 -6.47969,-4.3106803 -10.50782,-4.3106803 -3.54218,0 -6.75468,1.0880003 -9.375,3.1844703 -2.64062,-2.09647 -5.80156,-3.1844703 -9.25781,-3.1844703 -4.11875,0 -7.76562,1.4642203 -10.58594,4.2718503 -0.69843,0.69173 -1.34218,1.45863 -1.875,2.25242 -4.6875,-4.27682 -10.76093,-6.5242703 -17.89062,-6.5242703 -8.73438,0 -15.97031,3.2863603 -20.82031,9.4757303 -0.10788,0.13655 -0.19532,0.29065 -0.3125,0.42718 -0.0922,-0.11422 -0.18438,-0.23302 -0.27344,-0.34952 -4.91875,-6.25193 -12.08281,-9.5534003 -20.74219,-9.5534003 -8.72656,0 -15.95156,3.2863603 -20.82031,9.4757303 -0.0875,0.11234 -0.18438,0.24033 -0.27344,0.34951 -1.18437,-1.44652 -2.52968,-2.80573 -4.0625,-3.99999 -4.89687,-3.87978 -10.6375,-5.8252503 -17.03125,-5.8252503 z m -0.039,8.9320403 h 5.9375 c 4.33438,0 8.15469,1.28653 11.44532,3.8835 4.18593,3.27254 6.28906,7.83301 6.28906,13.70873 v 46.91262 c 0,4.31434 -1.32813,8.10681 -3.94531,11.37864 -3.28125,4.159576 -7.8875,6.252427 -13.78907,6.252427 -5.90468,0 -10.45468,-2.046121 -13.67187,-6.135917 -2.69219,-3.41323 -4.02344,-7.2609 -4.02344,-11.49515 v -29.28155 c 0,-4.38601 1.31719,-8.23363 3.94531,-11.49515 3.20782,-4.08979 7.77657,-6.13592 13.75,-6.13592 h 5.85938 c 0,-2.1572 -0.6,-3.69243 -1.75781,-4.58253 -1.15938,-0.89382 -2.525,-1.32038 -4.10157,-1.32038 h -5.9375 c -1.56562,0 -2.95,-0.55643 -4.14062,-1.6699 -1.20313,-1.11534 -1.79688,-2.48185 -1.79688,-4.1165 0,-1.7131 0.56563,-3.12265 1.67969,-4.23303 1.11719,-1.12262 2.53906,-1.6699 4.25781,-1.66989 z m 48.125,0 c 5.90469,0 10.45157,2.0104 13.67188,6.09709 2.69063,3.34353 4.02344,7.18384 4.02344,11.49514 v 5.78641 c 0,1.6365 -0.55938,3.03751 -1.71875,4.19416 -1.15625,1.14628 -2.57813,1.70874 -4.21875,1.70874 -1.64531,0 -3.0625,-0.56245 -4.21875,-1.70874 -1.1625,-1.15665 -1.71875,-2.55766 -1.71875,-4.19416 v -5.78641 c 0,-1.63649 -0.38907,-2.92163 -1.13282,-3.88349 -1.05,-1.34089 -2.59687,-2.01942 -4.6875,-2.01942 -2.16718,0 -3.71562,0.55287 -4.60937,1.70874 -0.89531,1.15062 -1.36719,2.55768 -1.36719,4.19417 v 11.61166 c 0,1.70811 0.43594,3.1158 1.28906,4.27184 0.85625,1.14982 2.44219,1.74757 4.6875,1.74757 5.90469,0 10.45157,2.01709 13.67188,6.09709 2.69063,3.34649 4.02344,7.19488 4.02344,11.49515 v 11.68931 c 0,4.31434 -1.29532,8.10681 -3.90625,11.37864 -3.28907,4.159576 -7.88438,6.252427 -13.78907,6.252427 -5.90312,0 -10.50312,-2.046121 -13.71093,-6.135917 -2.68907,-3.41323 -4.02344,-7.2609 -4.02344,-11.49515 v -5.90291 c 0,-1.63045 0.56094,-3.0049 1.67969,-4.11652 1.12344,-1.11641 2.49687,-1.66989 4.14062,-1.66989 1.57344,0 2.98125,0.55348 4.17969,1.66989 1.19688,1.11162 1.75781,2.48607 1.75781,4.11652 v 5.7864 c 0,1.70935 0.43594,3.12077 1.28906,4.23301 0.85625,1.11531 2.44219,1.6699 4.6875,1.6699 2.09063,0 3.6375,-0.5983 4.6875,-1.86407 0.74375,-0.96604 1.13282,-2.28398 1.13282,-3.92233 v -11.68931 c 0,-1.63047 -0.38907,-2.91744 -1.13282,-3.8835 -1.05,-1.33686 -2.59687,-2.01943 -4.6875,-2.01943 -5.90312,0 -10.50312,-2.05218 -13.71093,-6.13592 -2.68907,-3.34043 -4.02344,-7.19005 -4.02344,-11.49515 v -11.68932 c 0,-4.386 1.31875,-8.22742 3.94531,-11.49514 3.20313,-4.08669 7.8125,-6.09709 13.78906,-6.09708 z m 42.14844,0 c 5.90313,0 10.45313,2.0104 13.67188,6.09709 2.68437,3.34353 4.02343,7.18384 4.02343,11.49514 v 5.78641 c 0,1.6365 -0.59375,3.03751 -1.75781,4.19416 -1.15312,1.14628 -2.54062,1.70874 -4.17969,1.70874 -1.64375,0 -3.05937,-0.56245 -4.21875,-1.70874 -1.1625,-1.15665 -1.71875,-2.55766 -1.71875,-4.19416 v -5.78641 c 0,-1.63649 -0.37812,-2.92163 -1.13281,-3.88349 -1.04062,-1.34089 -2.60312,-2.01942 -4.6875,-2.01942 -2.16718,0 -3.70468,0.55287 -4.60937,1.70874 -0.90157,1.15062 -1.32813,2.55768 -1.32813,4.19417 v 46.79612 c 0,1.70935 0.39219,3.12077 1.25,4.233 0.85782,1.11531 2.43906,1.66991 4.6875,1.66991 2.08438,0 3.64688,-0.59831 4.6875,-1.86408 0.75469,-0.96603 1.13281,-2.28397 1.13281,-3.92233 v -5.90291 c 0,-1.63045 0.55782,-3.00489 1.67969,-4.11651 1.11875,-1.11641 2.53438,-1.66989 4.25781,-1.66989 1.56407,0 2.94532,0.55347 4.14063,1.66989 1.19844,1.11162 1.79687,2.48606 1.79687,4.11651 v 5.90291 c 0,4.31434 -1.29531,8.10681 -3.90625,11.37864 -3.29218,4.159586 -7.88593,6.252427 -13.78906,6.252427 -5.90937,0 -10.46719,-2.046111 -13.67187,-6.135917 -2.69063,-3.41323 -4.0625,-7.2609 -4.0625,-11.49515 v -46.91262 c 0,-4.386 1.325,-8.22742 3.94531,-11.49514 3.20938,-4.08669 7.80781,-6.09709 13.78906,-6.09709 z m 30.35156,0 c 1.65157,0 3.05001,0.55394 4.21875,1.70874 1.15313,1.15107 1.71875,2.5552 1.71875,4.19418 0,1.63465 -0.56093,3.00116 -1.67968,4.1165 -1.11719,1.11347 -2.53594,1.6699 -4.25782,1.6699 -1.56562,0 -2.95468,-0.55643 -4.14062,-1.6699 -1.19687,-1.11534 -1.79688,-2.48185 -1.79688,-4.1165 0,-1.7131 0.5625,-3.12265 1.67969,-4.23303 1.12188,-1.12262 2.53906,-1.6699 4.25781,-1.66989 z m 18.63282,0 c 1.63593,0 3.02187,0.55394 4.17968,1.70874 1.15782,1.15107 1.75782,2.5552 1.75782,4.19418 0,1.63465 -0.56094,3.00116 -1.67969,4.1165 -1.12812,1.11347 -2.53906,1.6699 -4.25781,1.6699 -1.57188,0 -2.94219,-0.55643 -4.14063,-1.6699 -1.19687,-1.11534 -1.79687,-2.48185 -1.79687,-4.1165 0,-1.7131 0.5625,-3.12265 1.67968,-4.23303 1.12344,-1.12262 2.53438,-1.6699 4.25782,-1.66989 z m -18.63289,17.59223 c 1.57344,0 2.97657,0.55752 4.17969,1.66991 1.19219,1.11161 1.75781,2.48312 1.75781,4.1165 v 52.85435 c 0,1.6402 -0.56562,3.00365 -1.71875,4.155346 -1.16875,1.15534 -2.56718,1.747571 -4.21875,1.747571 -1.64062,0 -3.02031,-0.592231 -4.17969,-1.747571 -1.15156,-1.151696 -1.75781,-2.515166 -1.75781,-4.155346 v -52.85435 c 0,-1.63338 0.5625,-3.00489 1.67969,-4.1165 1.12187,-1.11237 2.53906,-1.66991 4.25781,-1.66991 z m 18.63281,0 c 1.5625,0 2.95313,0.55752 4.14063,1.66991 1.19687,1.11161 1.79687,2.48312 1.79687,4.1165 v 52.85435 c 0,1.6402 -0.6,3.00365 -1.75781,4.155346 -1.15781,1.15534 -2.54375,1.747571 -4.17969,1.747571 -1.63906,0 -3.06562,-0.592231 -4.21875,-1.747571 -1.16406,-1.151696 -1.71875,-2.515166 -1.71875,-4.155346 v -52.85435 c 0,-1.63338 0.5625,-3.00489 1.67969,-4.1165 1.12344,-1.11237 2.53438,-1.66991 4.25781,-1.66991 z m -133.32037,11.68932 c -2.16406,0 -3.67188,0.60257 -4.57031,1.74757 -0.89532,1.159 -1.36719,2.55707 -1.36719,4.19418 v 29.16504 c 0,1.70935 0.42656,3.12077 1.28906,4.23301 0.85313,1.11531 2.40938,1.6699 4.64844,1.6699 2.08906,0 3.675,-0.5983 4.72656,-1.86407 0.74375,-0.96604 1.13281,-2.28398 1.13281,-3.92233 v -35.2233 z" style="fill:#523A28;fill-opacity:1;fill-rule:nonzero;stroke:none;stroke-width:0.997083" id="path1-6"/></g><g
            id="g12" transform="matrix(1.25,0,0,-1.25,-262.23267,721.78969)"><path id="path18" style="fill:#523A28;fill-opacity:1;fill-rule:nonzero;stroke:none;stroke-width:0.697591" d="m 264.04107,545.22881 c 0.3324,0 0.67335,0.0689 0.99764,0.20754 1.28453,0.55371 1.87548,2.04045 1.32028,3.32227 v 0.003 c -0.10464,0.23718 -0.18704,0.61388 -0.18704,1.04988 -0.0106,0.78479 0.28034,1.70909 0.671,2.24449 0.42579,0.55633 0.69017,0.67492 1.06757,0.688 0.15321,-0.003 0.37871,-0.034 0.72244,-0.16742 1.29534,-0.51796 2.76717,0.1151 3.28662,1.41088 0.51438,1.29578 -0.11545,2.76595 -1.41053,3.28304 -0.8447,0.3392 -1.72183,0.53104 -2.59853,0.52755 -2.29176,0.0139 -4.15904,-1.30013 -5.20098,-2.82611 -1.07158,-1.54343 -1.58117,-3.34408 -1.59338,-5.16043 0,-1.02285 0.1744,-2.06226 0.60324,-3.0572 0.4101,-0.95395 1.34234,-1.52598 2.32167,-1.52598 m -5.71296,29.4427 c -1.03313,0.0828 -2.06861,0.13952 -3.1191,0.13952 -4.35715,0 -8.64045,-0.72811 -12.75754,-2.17125 -1.36693,0.41419 -3.38236,1.31147 -5.27623,3.25513 -0.98029,1.00889 -2.30022,1.53732 -3.63576,1.53732 -0.85638,0 -1.72288,-0.21974 -2.50941,-0.6662 -2.00653,-1.14579 -2.98656,-3.50278 -2.37852,-5.73333 0.40094,-1.47802 0.56879,-2.85401 0.61004,-4.05998 -2.64387,0.0515 -5.22653,0.63481 -7.68676,1.73613 -0.66663,0.30171 -1.37512,0.44297 -2.07202,0.44297 -1.50557,0 -2.97766,-0.66968 -3.96144,-1.90529 -1.44114,-1.80502 -1.47959,-4.35994 -0.096,-6.20769 1.86423,-2.47994 3.05632,-4.9372 3.82376,-7.07008 -1.15538,-0.32613 -2.52702,-0.56505 -4.07995,-0.56505 h -0.33789 c -2.27328,0 -4.27719,-1.52075 -4.8814,-3.72078 -0.61623,-2.22706 0.35456,-4.58928 2.35638,-5.73856 1.63367,-0.94 3.10785,-2.07882 4.40869,-3.40599 -0.78348,-6.71256 0.20335,-13.48879 2.89727,-19.74182 5.14133,-11.93675 15.80854,-20.3054 30.80188,-23.01357 7.34476,-1.2193 14.57334,0.91421 21.32718,3.71828 10.16257,5.78736 13.77492,11.16234 18.77251,20.05223 4.3287,11.72884 3.22761,27.25553 -4.2795,37.66815 -5.57768,7.49736 -13.69912,12.73191 -22.85736,14.70696 m -39.1067,-51.12424 c -2.72461,6.32192 -3.34687,13.01269 -2.19628,19.31629 -1.48883,1.87042 -3.8323,4.25531 -7.23986,6.21554 4.64465,-0.0767 8.16635,1.43878 10.15117,2.58457 0.0794,0.16307 0.1417,0.33049 0.2255,0.49616 -0.57534,2.87931 -2.03557,7.74763 -5.72897,12.66477 6.43232,-2.88018 12.11419,-2.23927 14.45732,-1.77188 0.39483,2.01604 0.77014,5.68711 -0.41586,10.05316 3.64186,-3.74694 7.71231,-4.74537 9.25529,-5.00347 16.85764,6.696 36.08194,-1.16673 43.30663,-17.93594 7.35086,-17.06831 -0.52843,-36.86716 -17.59552,-44.21882 -17.07162,-7.3499 -36.86881,0.52695 -44.21942,17.59962 m 28.78453,10.69146 v 0.003 c -0.10351,0.23892 -0.18835,0.61911 -0.18835,1.05859 -0.009,0.77782 0.27755,1.70474 0.67369,2.24189 0.42309,0.55894 0.68704,0.67056 1.06688,0.68363 0.1594,0 0.3808,-0.027 0.71294,-0.16044 1.29229,-0.52058 2.76516,0.10377 3.28557,1.40128 0.52284,1.29578 -0.10255,2.7677 -1.39684,3.28827 -0.84949,0.34444 -1.73517,0.53192 -2.60167,0.5293 -2.28792,0.0131 -4.15764,-1.30013 -5.20028,-2.82786 -1.07498,-1.53993 -1.58388,-3.34407 -1.59783,-5.15607 0.003,-1.02546 0.17606,-2.06399 0.60185,-3.06068 0.41315,-0.95395 1.34513,-1.52859 2.32437,-1.52859 0.33415,0 0.67344,0.0654 0.99808,0.20491 1.28208,0.55546 1.87582,2.04394 1.32159,3.32228 m 21.08922,-15.95565 c 5.60253,4.25443 10.43422,10.85975 10.43178,19.49069 0.003,3.4461 -0.77049,7.15554 -2.47253,11.05333 -0.56139,1.27834 -2.05188,1.86344 -3.333,1.30275 -1.27903,-0.56069 -1.86179,-2.05179 -1.30118,-3.33361 1.45482,-3.33797 2.04917,-6.33238 2.05196,-9.02247 -0.003,-6.63758 -3.65764,-11.79016 -8.44844,-15.47257 -4.72478,-3.66409 -10.64096,-5.55892 -13.60503,-5.51358 -0.69288,-0.006 -1.18503,0.10464 -1.34818,0.17614 -1.29952,0.51273 -2.7676,-0.12818 -3.2806,-1.42588 -0.51124,-1.29777 0.124,-2.76689 1.42449,-3.27955 1.02772,-0.39919 2.08056,-0.52344 3.20429,-0.52859 4.6334,0.0466 11.00886,2.27362 16.67644,6.55334"/></g></g></g></svg>